<?xml version="1.0" encoding="UTF-8"?>
<svg id="Layer_1" data-name="Layer 1" xmlns="http://www.w3.org/2000/svg" viewBox="0 0 566.73 121.51">
  <defs>
    <style>
      .cls-1 {
        font-family: BentonSansCond-Regular, BentonSansCond;
        font-size: 19.38px;
      }

      .cls-1, .cls-2 {
        fill: #231f20;
      }

      .cls-3 {
        letter-spacing: 0em;
      }

      .cls-4 {
        letter-spacing: 0em;
      }

      .cls-5 {
        fill: #fff;
      }

      .cls-6 {
        letter-spacing: 0em;
      }

      .cls-7 {
        letter-spacing: 0em;
      }

      .cls-8 {
        letter-spacing: -.08em;
      }

      .cls-9 {
        letter-spacing: -.08em;
      }

      .cls-10 {
        letter-spacing: -.08em;
      }

      .cls-11 {
        letter-spacing: -.06em;
      }

      .cls-12 {
        letter-spacing: -.02em;
      }

      .cls-13 {
        letter-spacing: -.01em;
      }

      .cls-14 {
        letter-spacing: -.01em;
      }

      .cls-15 {
        letter-spacing: -.01em;
      }

      .cls-16 {
        letter-spacing: -.02em;
      }

      .cls-17 {
        letter-spacing: -.02em;
      }

      .cls-2 {
        font-family: BentonSansCond-Bold, BentonSansCond;
        font-size: 31.37px;
        font-weight: 700;
      }

      .cls-18 {
        letter-spacing: -.03em;
      }

      .cls-19 {
        letter-spacing: -.03em;
      }

      .cls-20 {
        letter-spacing: -.03em;
      }

      .cls-21 {
        letter-spacing: -.03em;
      }

      .cls-22 {
        letter-spacing: 0em;
      }

      .cls-23 {
        letter-spacing: 0em;
      }

      .cls-24 {
        letter-spacing: 0em;
      }

      .cls-25 {
        letter-spacing: 0em;
      }

      .cls-26 {
        letter-spacing: 0em;
      }

      .cls-27 {
        letter-spacing: 0em;
      }

      .cls-28 {
        fill: #991b1e;
      }

      .cls-29 {
        letter-spacing: 0em;
      }

      .cls-30 {
        letter-spacing: 0em;
      }

      .cls-31 {
        letter-spacing: 0em;
      }

      .cls-32 {
        letter-spacing: -.01em;
      }

      .cls-33 {
        letter-spacing: -.01em;
      }

      .cls-34 {
        letter-spacing: -.01em;
      }

      .cls-35 {
        letter-spacing: -.01em;
      }

      .cls-36 {
        letter-spacing: -.01em;
      }

      .cls-37 {
        letter-spacing: -.01em;
      }

      .cls-38 {
        letter-spacing: -.01em;
      }

      .cls-39 {
        letter-spacing: 0em;
      }

      .cls-40 {
        letter-spacing: -.01em;
      }

      .cls-41 {
        letter-spacing: -.01em;
      }

      .cls-42 {
        letter-spacing: -.01em;
      }

      .cls-43 {
        letter-spacing: -.01em;
      }

      .cls-44 {
        letter-spacing: -.01em;
      }

      .cls-45 {
        letter-spacing: -.01em;
      }

      .cls-46 {
        letter-spacing: 0em;
      }

      .cls-47 {
        letter-spacing: 0em;
      }

      .cls-48 {
        letter-spacing: 0em;
      }

      .cls-49 {
        letter-spacing: 0em;
      }

      .cls-50 {
        letter-spacing: 0em;
      }

      .cls-51 {
        letter-spacing: 0em;
      }

      .cls-52 {
        letter-spacing: 0em;
      }

      .cls-53 {
        letter-spacing: 0em;
      }

      .cls-54 {
        letter-spacing: 0em;
      }

      .cls-55 {
        letter-spacing: 0em;
      }

      .cls-56 {
        letter-spacing: 0em;
      }

      .cls-57 {
        letter-spacing: 0em;
      }

      .cls-58 {
        letter-spacing: 0em;
      }

      .cls-59 {
        letter-spacing: 0em;
      }

      .cls-60 {
        letter-spacing: .01em;
      }

      .cls-61 {
        letter-spacing: 0em;
      }
    </style>
  </defs>
  <g>
    <text class="cls-2" transform="translate(71.17 67.24)"><tspan class="cls-60" x="0" y="0">L</tspan><tspan class="cls-39" x="16.41" y="0">A</tspan><tspan class="cls-27" x="35" y="0">N</tspan><tspan class="cls-42" x="55.27" y="0">G</tspan><tspan class="cls-21" x="74.91" y="0">U</tspan><tspan class="cls-20" x="93.12" y="0">A</tspan><tspan class="cls-52" x="111" y="0">G</tspan><tspan class="cls-23" x="130.71" y="0">E</tspan><tspan x="147" y="0">S </tspan><tspan class="cls-39" x="172.48" y="0">AN</tspan><tspan class="cls-7" x="211.25" y="0">D </tspan><tspan class="cls-50" x="237.91" y="0">C</tspan><tspan class="cls-29" x="256.6" y="0">U</tspan><tspan class="cls-8" x="275.61" y="0">L</tspan><tspan class="cls-51" x="289.07" y="0">T</tspan><tspan class="cls-29" x="305.68" y="0">U</tspan><tspan class="cls-17" x="324.69" y="0">R</tspan><tspan class="cls-23" x="342.81" y="0">E</tspan><tspan x="359.1" y="0">S</tspan></text>
    <text class="cls-1" transform="translate(71.17 92.36)"><tspan class="cls-53" x="0" y="0">HA</tspan><tspan class="cls-48" x="22.63" y="0">M</tspan><tspan class="cls-40" x="36.68" y="0">I</tspan><tspan class="cls-9" x="41.28" y="0">L</tspan><tspan class="cls-19" x="49.06" y="0">T</tspan><tspan class="cls-31" x="58.57" y="0">O</tspan><tspan x="70.64" y="0">N </tspan><tspan class="cls-12" x="86.65" y="0">L</tspan><tspan class="cls-57" x="95.56" y="0">U</tspan><tspan class="cls-58" x="107.16" y="0">G</tspan><tspan class="cls-53" x="118.94" y="0">A</tspan><tspan class="cls-3" x="129.71" y="0">R </tspan><tspan class="cls-43" x="144.61" y="0">SC</tspan><tspan class="cls-30" x="166.18" y="0">H</tspan><tspan class="cls-59" x="178.11" y="0">O</tspan><tspan class="cls-31" x="190.21" y="0">O</tspan><tspan x="202.28" y="0">L </tspan><tspan class="cls-31" x="215.52" y="0">O</tspan><tspan x="227.59" y="0">F</tspan></text>
    <text class="cls-2" transform="translate(71.17 33.47)"><tspan class="cls-51" x="0" y="0">D</tspan><tspan class="cls-16" x="19.4" y="0">E</tspan><tspan class="cls-11" x="35.41" y="0">P</tspan><tspan class="cls-39" x="51.54" y="0">A</tspan><tspan class="cls-34" x="70.14" y="0">RT</tspan><tspan class="cls-47" x="104.82" y="0">M</tspan><tspan class="cls-16" x="128.63" y="0">E</tspan><tspan class="cls-38" x="144.64" y="0">N</tspan><tspan x="164.68" y="0">T </tspan><tspan class="cls-22" x="188.55" y="0">O</tspan><tspan class="cls-4" x="208.81" y="0">F </tspan><tspan class="cls-44" x="231.33" y="0">M</tspan><tspan class="cls-33" x="255.03" y="0">I</tspan><tspan class="cls-51" x="263.59" y="0">DD</tspan><tspan class="cls-13" x="302.38" y="0">L</tspan><tspan class="cls-4" x="317.98" y="0">E </tspan><tspan class="cls-61" x="341.51" y="0">E</tspan><tspan class="cls-35" x="358.26" y="0">A</tspan><tspan class="cls-55" x="376.71" y="0">S</tspan><tspan class="cls-34" x="394.93" y="0">T</tspan><tspan class="cls-16" x="411.4" y="0">ER</tspan><tspan x="445.52" y="0">N </tspan></text>
    <text class="cls-1" transform="translate(71.17 116.99)"><tspan class="cls-25" x="0" y="0">G</tspan><tspan class="cls-18" x="11.73" y="0">L</tspan><tspan class="cls-31" x="20.48" y="0">O</tspan><tspan class="cls-15" x="32.56" y="0">B</tspan><tspan class="cls-49" x="43.52" y="0">A</tspan><tspan x="54.3" y="0">L </tspan><tspan class="cls-53" x="67.53" y="0">A</tspan><tspan class="cls-54" x="78.31" y="0">N</tspan><tspan x="90.32" y="0">D </tspan><tspan class="cls-40" x="105.78" y="0">I</tspan><tspan class="cls-46" x="110.38" y="0">NT</tspan><tspan class="cls-37" x="132.25" y="0">E</tspan><tspan class="cls-14" x="141.83" y="0">R</tspan><tspan class="cls-46" x="152.62" y="0">N</tspan><tspan class="cls-10" x="164.6" y="0">A</tspan><tspan class="cls-45" x="174" y="0">T</tspan><tspan class="cls-56" x="183.84" y="0">I</tspan><tspan class="cls-31" x="188.5" y="0">O</tspan><tspan class="cls-46" x="200.58" y="0">N</tspan><tspan class="cls-53" x="212.56" y="0">A</tspan><tspan x="223.33" y="0">L </tspan><tspan class="cls-36" x="236.57" y="0">S</tspan><tspan class="cls-26" x="246.93" y="0">TU</tspan><tspan class="cls-24" x="268.44" y="0">D</tspan><tspan class="cls-41" x="279.93" y="0">I</tspan><tspan class="cls-32" x="284.52" y="0">E</tspan><tspan class="cls-6" x="294.12" y="0">S</tspan></text>
  </g>
  <g>
    <rect class="cls-28" x="0" width="58.13" height="117.49"/>
    <polygon class="cls-5" points="35.76 16.53 35.76 20.15 38.26 20.15 38.26 40.27 32.97 40.27 32.97 13.76 35.78 13.76 35.78 10.15 22.59 10.15 22.59 13.76 25.4 13.76 25.4 40.27 20.06 40.27 20.06 20.15 22.55 20.15 22.55 16.53 10.15 16.53 10.15 20.15 12.95 20.15 12.95 43.45 17.51 48.11 25.4 48.11 25.4 53.48 22.6 53.48 22.6 58.13 35.77 58.13 35.77 53.48 32.97 53.48 32.97 48.11 40.8 48.11 45.36 43.45 45.36 20.15 48.17 20.15 48.17 16.53 35.76 16.53"/>
  </g>
</svg>